<?xml version="1.0" encoding="UTF-8" standalone="no"?>
<!-- Created with Inkscape (http://www.inkscape.org/) -->

<svg
   xmlns:dc="http://purl.org/dc/elements/1.1/"
   xmlns:cc="http://creativecommons.org/ns#"
   xmlns:rdf="http://www.w3.org/1999/02/22-rdf-syntax-ns#"
   xmlns:svg="http://www.w3.org/2000/svg"
   xmlns="http://www.w3.org/2000/svg"
   xmlns:sodipodi="http://sodipodi.sourceforge.net/DTD/sodipodi-0.dtd"
   xmlns:inkscape="http://www.inkscape.org/namespaces/inkscape"
   width="30.155178mm"
   height="13.74794mm"
   viewBox="0 0 106.84906 48.713173"
   id="svg2"
   version="1.1"
   inkscape:version="0.91 r13725"
   sodipodi:docname="4devlogoblue.svg">
  <defs
     id="defs4" />
  <sodipodi:namedview
     id="base"
     pagecolor="#ffffff"
     bordercolor="#666666"
     borderopacity="1.0"
     inkscape:pageopacity="0.0"
     inkscape:pageshadow="2"
     inkscape:zoom="4"
     inkscape:cx="51.358087"
     inkscape:cy="45.187141"
     inkscape:document-units="px"
     inkscape:current-layer="layer1"
     showgrid="false"
     fit-margin-top="0"
     fit-margin-left="0"
     fit-margin-right="0"
     fit-margin-bottom="0"
     inkscape:window-width="1920"
     inkscape:window-height="1017"
     inkscape:window-x="-8"
     inkscape:window-y="-8"
     inkscape:window-maximized="1" />
  <metadata
     id="metadata7">
    <rdf:RDF>
      <cc:Work
         rdf:about="">
        <dc:format>image/svg+xml</dc:format>
        <dc:type
           rdf:resource="http://purl.org/dc/dcmitype/StillImage" />
        <dc:title></dc:title>
      </cc:Work>
    </rdf:RDF>
  </metadata>
  <g
     inkscape:label="Layer 1"
     inkscape:groupmode="layer"
     id="layer1"
     transform="translate(-190.33223,-546.70047)">
    <path
       style="fill:#0084d2;fill-opacity:1"
       d="m 233.61116,593.5526 c -6.52099,-3.97575 -8.95844,-17.10374 -4.6033,-24.79316 4.05628,-7.16174 12.58652,-10.12698 19.23561,-6.68657 l 2.53157,1.30989 -0.32765,-8.34114 -0.32766,-8.34115 4.31203,0 4.31203,0 0,23.90625 0,23.90625 -3.31067,0 c -2.01169,0 -3.51328,-0.52797 -3.82704,-1.34562 -0.42989,-1.12027 -1.01374,-1.04235 -3.4862,0.46524 -3.94548,2.40577 -10.49078,2.36968 -14.50872,-0.08 z m 14.58575,-5.25261 c 1.94152,-1.22438 2.10938,-2.02571 2.10938,-10.06958 0,-7.14936 -0.29849,-9.00144 -1.64063,-10.18 -2.69602,-2.36743 -5.5626,-2.80155 -8.49296,-1.28621 -3.49185,1.80571 -5.27444,6.15899 -5.12558,12.5172 0.22791,9.7342 5.87436,13.60673 13.14979,9.01859 z m -45.45279,-4.8855 c -11.34635,-7.42673 -12.40643,-8.36048 -12.41187,-10.93277 -0.005,-2.58138 1.00912,-3.46735 12.34614,-10.78125 6.79365,-4.38281 12.69539,-8.10938 13.11499,-8.28125 0.4196,-0.17188 0.75878,1.30469 0.75373,3.28125 -0.009,3.5282 -0.18001,3.70198 -9.375,9.52774 -5.1512,3.2637 -9.36582,6.07778 -9.36582,6.25351 0,0.17573 4.21462,2.98981 9.36582,6.25351 9.13561,5.78814 9.36604,6.0204 9.375,9.44961 0.005,1.9336 -0.30723,3.47835 -0.69395,3.43278 -0.38671,-0.0456 -6.28579,-3.73698 -13.10904,-8.20313 z m 67.42745,4.86407 c 0.27314,-3.21226 0.84439,-3.77229 9.32365,-9.14063 4.96798,-3.14529 9.18673,-6.04294 9.375,-6.43921 0.18828,-0.39628 -3.87643,-3.39157 -9.03268,-6.65621 -8.82771,-5.5892 -9.39199,-6.13548 -9.66597,-9.35763 -0.1715,-2.01691 0.12737,-3.42191 0.72789,-3.42191 0.56036,0 6.70302,3.80433 13.65034,8.45407 10.51352,7.03655 12.63149,8.8415 12.63149,10.76468 0,1.92318 -2.11797,3.72813 -12.63149,10.76468 -6.94732,4.64974 -13.08998,8.45407 -13.65034,8.45407 -0.60052,0 -0.89939,-1.405 -0.72789,-3.42191 z"
       id="path4205"
       inkscape:connector-curvature="0" />
    <flowRoot
       xml:space="preserve"
       id="flowRoot4197"
       style="font-style:normal;font-weight:normal;font-size:15px;line-height:125%;font-family:sans-serif;letter-spacing:0px;word-spacing:0px;fill:#000000;fill-opacity:1;stroke:none;stroke-width:1px;stroke-linecap:butt;stroke-linejoin:miter;stroke-opacity:1"><flowRegion
         id="flowRegion4199"><rect
           id="rect4201"
           width="48"
           height="46.75"
           x="274"
           y="433.61221" /></flowRegion><flowPara
         id="flowPara4203"></flowPara></flowRoot>  </g>
</svg>
